<svg viewBox="0 0 18 18" fill="none" xmlns="http://www.w3.org/2000/svg">
<circle cx="9" cy="9" r="8.5" stroke="currentColor"/>
<path d="M5.16784 5.16784C5.22091 5.11464 5.28396 5.07243 5.35336 5.04363C5.42277 5.01482 5.49718 5 5.57233 5C5.64747 5 5.72188 5.01482 5.79129 5.04363C5.8607 5.07243 5.92374 5.11464 5.97681 5.16784L9.00015 8.19233L12.0235 5.16784C12.0766 5.11472 12.1397 5.07259 12.2091 5.04384C12.2785 5.0151 12.3529 5.0003 12.428 5.0003C12.5031 5.0003 12.5775 5.0151 12.6469 5.04384C12.7163 5.07259 12.7793 5.11472 12.8325 5.16784C12.8856 5.22096 12.9277 5.28402 12.9565 5.35342C12.9852 5.42282 13 5.49721 13 5.57233C13 5.64744 12.9852 5.72183 12.9565 5.79123C12.9277 5.86063 12.8856 5.92369 12.8325 5.97681L9.80797 9.00015L12.8325 12.0235C12.8856 12.0766 12.9277 12.1397 12.9565 12.2091C12.9852 12.2785 13 12.3529 13 12.428C13 12.5031 12.9852 12.5775 12.9565 12.6469C12.9277 12.7163 12.8856 12.7793 12.8325 12.8325C12.7793 12.8856 12.7163 12.9277 12.6469 12.9565C12.5775 12.9852 12.5031 13 12.428 13C12.3529 13 12.2785 12.9852 12.2091 12.9565C12.1397 12.9277 12.0766 12.8856 12.0235 12.8325L9.00015 9.80797L5.97681 12.8325C5.92369 12.8856 5.86063 12.9277 5.79123 12.9565C5.72183 12.9852 5.64744 13 5.57233 13C5.49721 13 5.42282 12.9852 5.35342 12.9565C5.28402 12.9277 5.22096 12.8856 5.16784 12.8325C5.11472 12.7793 5.07259 12.7163 5.04384 12.6469C5.0151 12.5775 5.0003 12.5031 5.0003 12.428C5.0003 12.3529 5.0151 12.2785 5.04384 12.2091C5.07259 12.1397 5.11472 12.0766 5.16784 12.0235L8.19233 9.00015L5.16784 5.97681C5.11464 5.92374 5.07243 5.8607 5.04363 5.79129C5.01482 5.72188 5 5.64747 5 5.57233C5 5.49718 5.01482 5.42277 5.04363 5.35336C5.07243 5.28396 5.11464 5.22091 5.16784 5.16784Z" fill="currentColor"/>
</svg>
