<svg viewBox="0 0 18 18" fill="none" xmlns="http://www.w3.org/2000/svg">
<path fill-rule="evenodd" clip-rule="evenodd" d="M9 18C13.9706 18 18 13.9706 18 9C18 4.02944 13.9706 0 9 0C4.02944 0 0 4.02944 0 9C0 13.9706 4.02944 18 9 18ZM5.46693 5.53471C5.14668 6.0177 4.98656 6.49452 4.98656 6.96513C4.98656 7.193 5.08762 7.40477 5.28975 7.60044C5.49187 7.79612 5.73993 7.89395 6.03393 7.89395C6.53268 7.89395 6.87129 7.61407 7.04979 7.05429C7.23879 6.51928 7.46978 6.11431 7.74279 5.83937C8.01579 5.56444 8.44104 5.42697 9.01854 5.42697C9.51204 5.42697 9.915 5.5632 10.2274 5.83566C10.5398 6.10812 10.6959 6.44248 10.6959 6.83878C10.6959 7.04189 10.6448 7.23013 10.5424 7.40351C10.44 7.5769 10.314 7.73419 10.1644 7.87538C10.0148 8.01656 9.77192 8.22583 9.43592 8.50325C9.05267 8.82029 8.74819 9.09399 8.52244 9.32434C8.29669 9.55469 8.11556 9.8222 7.97906 10.1269C7.61645 11.5272 9.49815 11.6401 9.93205 10.6396C9.98455 10.543 10.0646 10.4365 10.1722 10.32C10.2799 10.2036 10.4229 10.0687 10.6014 9.91509C11.2472 9.37017 11.6948 8.98254 11.9441 8.75219C12.1935 8.52184 12.4087 8.24814 12.5899 7.9311C12.771 7.61406 12.8616 7.24502 12.8616 6.82395C12.8616 6.28894 12.7028 5.79356 12.3851 5.33781C12.0675 4.88206 11.6173 4.52168 11.0346 4.25665C10.4518 3.99163 9.77979 3.85912 9.01854 3.85912C8.19954 3.85912 7.48294 4.01761 6.86869 4.33466C6.25443 4.6517 5.78719 5.05171 5.46693 5.53471ZM7.875 13.5C7.875 14.1213 8.37868 14.625 9 14.625C9.62132 14.625 10.125 14.1213 10.125 13.5C10.125 12.8787 9.62132 12.375 9 12.375C8.37868 12.375 7.875 12.8787 7.875 13.5Z" fill="currentColor"/>
</svg>
